<svg xmlns="http://www.w3.org/2000/svg" viewBox="0 0 576 576">
  <rect width="576" height="576" rx="80" fill="#888"/>
  <g transform="translate(0,32)">
    <path d="M288 32C422.4 32 512 67.2 512 112v16l0 32c17.7 0 32 14.3 32 32v64c0 17.7-14.3 32-32 32l0 160c0 17.7-14.3 32-32 32v32c0 17.7-14.3 32-32 32H416c-17.7 0-32-14.3-32-32V448H192v32c0 17.7-14.3 32-32 32H128c-17.7 0-32-14.3-32-32l0-32c-17.7 0-32-14.3-32-32l0-160c-17.7 0-32-14.3-32-32V160c0-17.7 14.3-32 32-32h0V128h0V112C64 67.2 153.6 32 288 32zM128 192v96c0 17.7 14.3 32 32 32H272V160H160c-17.7 0-32 14.3-32 32zM304 320H416c17.7 0 32-14.3 32-32V192c0-17.7-14.3-32-32-32H304V320zM144 432a32 32 0 1 0 0-64 32 32 0 1 0 0 64zm288 0a32 32 0 1 0 0-64 32 32 0 1 0 0 64zM384 112c0-8.8-7.2-16-16-16H208c-8.8 0-16 7.2-16 16s7.2 16 16 16H368c8.8 0 16-7.2 16-16z" fill="#eee"/>
  </g>
</svg>